<?xml version="1.0" encoding="UTF-8"?>
<svg id="Layer_2" data-name="Layer 2" xmlns="http://www.w3.org/2000/svg" viewBox="0 0 81.01 23.57">
  <defs>
    <style>
      .cls-1 {
        fill: #ecdfcc;
      }
    </style>
  </defs>
  <g id="White_Logo" data-name="White Logo">
    <g>
      <path class="cls-1" d="M20.91,3.89v.79c0,.12.04.23.12.32.08.09.17.13.28.13h4.48c.11,0,.2.04.28.13.08.09.12.19.12.32v2.58c0,.12-.04.23-.12.32s-.17.13-.28.13h-4.48c-.11,0-.2.04-.28.13-.08.09-.12.19-.12.32v.71c0,.13.04.23.12.32.08.09.17.13.28.13h5.14c.11,0,.2.04.28.13.08.09.12.19.12.32v2.58c0,.12-.04.23-.12.32-.08.09-.17.13-.28.13h-8.41c-.11,0-.2-.04-.28-.13s-.12-.19-.12-.32V.45c0-.12.04-.23.12-.32s.17-.13.28-.13h8.41c.11,0,.2.04.28.13.08.09.12.19.12.32v2.54c0,.12-.04.23-.12.32s-.17.13-.28.13h-5.14c-.11,0-.2.04-.28.13s-.12.19-.12.32Z"/>
      <path class="cls-1" d="M60.29,3.89v.79c0,.12.04.23.13.32.09.09.19.13.32.13h5.07c.12,0,.23.04.32.13.09.09.13.19.13.32v2.58c0,.12-.04.23-.13.32s-.19.13-.32.13h-5.07c-.13,0-.23.04-.32.13-.09.09-.13.19-.13.32v.71c0,.13.04.23.13.32.09.09.19.13.32.13h5.81c.12,0,.23.04.32.13.09.09.13.19.13.32v2.58c0,.12-.04.23-.13.32-.09.09-.19.13-.32.13h-9.52c-.12,0-.23-.04-.32-.13s-.13-.19-.13-.32V.45c0-.12.04-.23.13-.32s.19-.13.32-.13h9.52c.12,0,.23.04.32.13.09.09.13.19.13.32v2.54c0,.12-.04.23-.13.32s-.19.13-.32.13h-5.81c-.13,0-.23.04-.32.13s-.13.19-.13.32Z"/>
      <path class="cls-1" d="M78.64,10.1c.04-.08.1-.14.17-.2.34-.21.63-.47.9-.79.26-.31.49-.67.69-1.05.2-.39.34-.81.45-1.24.1-.44.16-.88.16-1.32,0-.81-.14-1.55-.41-2.21-.27-.67-.65-1.24-1.13-1.73-.48-.49-1.06-.87-1.74-1.14C77.04.14,76.3,0,75.49,0h-6.49c-.14,0-.26.05-.36.15s-.14.22-.14.35v14.35c.06,4.7,2.09,6.95,2.09,6.95,0,0,1.86-2.38,1.98-6.93l.06-3.48c0-.14.05-.26.15-.35.1-.1.22-.15.35-.15h.46c.14,0,.28.04.44.11.03.01.05.03.08.05.01,0,.02.01.03.02,2.65,1.57,4.58,3.7,5.71,5.16.72.93,1.11,1.59,1.16,1.67-.12-3.74-1.14-6.03-2.1-7.38-.08-.14-.17-.29-.26-.43ZM72.63,4.34c0-.14.05-.26.15-.36.1-.1.22-.14.35-.14h2.2c.29,0,.54.06.74.17.2.12.36.27.48.44.12.17.2.36.25.54.05.19.08.35.08.49,0,.26-.05.49-.15.69-.1.2-.22.36-.37.49-.15.13-.32.23-.5.29-.18.06-.35.09-.52.09h-2.2c-.14,0-.26-.05-.35-.14-.1-.1-.15-.22-.15-.36v-2.21Z"/>
      <path class="cls-1" d="M54.58,3.55c-.3-.68-.7-1.28-1.21-1.8-.51-.51-1.11-.92-1.8-1.21-.69-.29-1.42-.44-2.2-.44h-6.39c-.14,0-.26.05-.36.15-.1.1-.14.22-.14.35v9.71s0,.04,0,.08c0,.08,0,.16,0,.25h-.01v4.68c.06,4.7,2.09,6.95,2.09,6.95,0,0,1.86-2.38,1.98-6.93v-3.51l.06-.07c0-.14.05-.26.15-.36.1-.1.22-.15.36-.15h1.82c1.02,0,1.91-.14,2.67-.43.76-.29,1.4-.68,1.9-1.17.51-.49.89-1.08,1.14-1.76.25-.68.38-1.4.38-2.18s-.15-1.51-.45-2.19ZM50.53,6.88c-.24.34-.63.51-1.16.51h-2.25c-.14,0-.26-.05-.36-.14-.1-.1-.15-.22-.15-.35v-2.45c0-.14.05-.26.15-.35.1-.1.22-.14.36-.14h1.97c.29,0,.55.05.78.15.22.1.41.24.57.4.15.16.27.36.34.57.08.22.12.43.12.65,0,.43-.12.81-.37,1.15Z"/>
      <path class="cls-1" d="M41.5.53v14.44h0c0,.07,0,.14,0,.21-.1,4.67-1.75,7.13-1.75,7.13,0,0-1.7-2.31-1.75-7.13,0-.22,0-.44.02-.64v-6.37c0-.14-.05-.22-.16-.23-.11-.01-.19.04-.26.15l-2.33,5.73c-.06.11-.15.17-.28.17s-.23-.06-.3-.17l-2.96-5.73c-.06-.11-.14-.16-.25-.15-.11.01-.16.09-.16.23v.58c0,.06,0,.12-.02.17.03.29.04.6.03.93-.1,4.67-1.74,7.13-1.74,7.13,0,0-1.69-2.31-1.74-7.13,0-.32,0-.62.04-.89-.02-.06-.04-.13-.04-.21V.53c0-.14.04-.26.12-.36.08-.1.18-.15.3-.15h2.45c.11,0,.24.04.36.13.13.08.22.18.28.3l3.38,5.97c.07.11.15.17.25.17s.17-.06.23-.17l2.76-5.97c.07-.11.17-.21.3-.3.13-.08.25-.13.37-.13h2.45c.11,0,.21.05.3.15.08.1.12.22.12.36Z"/>
      <path class="cls-1" d="M8.68,3.84h.27c.14,0,.24.05.32.14.08.1.12.22.12.36v4.53c.06,1.4.15,2.85.28,4.33.23,2.65.55,5.15.92,7.5.15.95.31,1.88.48,2.77.02.12.2.12.22,0,.16-.86.31-1.73.46-2.64.39-2.39.71-4.94.94-7.64.21-2.47.32-4.83.36-7.06v-1.35s0-.46,0-.46c0-.14.04-.26.13-.36.09-.1.19-.14.31-.14h2.58c.11,0,.21-.04.28-.12.01-.01.03-.02.04-.03.08-.1.12-.22.12-.35V.5c0-.13-.04-.24-.11-.33,0,0,0-.01-.01-.02-.08-.1-.19-.15-.32-.15h-5.3s-1.78.04-3.58.09c-1.62.05-3.24.11-3.57.18-.35.07-.69.18-1.01.29C.96,1.09,0,3.12,0,5.1c0,2.81,2.15,5.1,4.81,5.1.31,0,.62-.03.92-.09.11-.02.12-.17.02-.21-1.95-.74-4.13-2.89-3.17-4.79.34-.97,2.07-1.28,3.87-1.34l2.23.08Z"/>
    </g>
  </g>
</svg>